<mxfile host="app.diagrams.net" modified="2023-11-04T07:39:36.992Z" agent="Mozilla/5.0 (Windows NT 10.0; Win64; x64) AppleWebKit/537.36 (KHTML, like Gecko) Chrome/118.0.0.0 Safari/537.36" etag="nWDfnBwQgRKImU96aptR" version="22.0.8" type="device">
  <diagram name="Page-1" id="DayZSqPZPNwGiBAW_IJT">
    <mxGraphModel dx="1050" dy="542" grid="1" gridSize="10" guides="1" tooltips="1" connect="1" arrows="1" fold="1" page="1" pageScale="1" pageWidth="850" pageHeight="1100" math="0" shadow="0">
      <root>
        <mxCell id="0" />
        <mxCell id="1" parent="0" />
        <mxCell id="hxrp0AvphLRLxJ5jyJJ6-19" value="" style="endArrow=none;dashed=1;html=1;rounded=0;strokeColor=#6C8EBF;" parent="1" edge="1">
          <mxGeometry width="50" height="50" relative="1" as="geometry">
            <mxPoint x="640" y="360" as="sourcePoint" />
            <mxPoint x="640" y="120" as="targetPoint" />
          </mxGeometry>
        </mxCell>
        <mxCell id="hxrp0AvphLRLxJ5jyJJ6-2" style="rounded=0;orthogonalLoop=1;jettySize=auto;html=1;endArrow=none;endFill=0;fillColor=#dae8fc;strokeColor=#6C8EBF;entryX=-0.005;entryY=0.503;entryDx=0;entryDy=0;entryPerimeter=0;" parent="1" source="2mW4bDRiq0QGP9x3o7AP-17" target="2mW4bDRiq0QGP9x3o7AP-4" edge="1">
          <mxGeometry relative="1" as="geometry" />
        </mxCell>
        <mxCell id="2mW4bDRiq0QGP9x3o7AP-10" value="Database&lt;br&gt;Server" style="html=1;verticalLabelPosition=bottom;align=center;labelBackgroundColor=#ffffff;verticalAlign=top;strokeWidth=2;strokeColor=#6C8EBF;shadow=0;dashed=0;shape=mxgraph.ios7.icons.data;aspect=fixed;" parent="1" vertex="1">
          <mxGeometry x="690" y="200" width="49.44" height="60" as="geometry" />
        </mxCell>
        <mxCell id="2mW4bDRiq0QGP9x3o7AP-17" value="Victim User" style="sketch=0;pointerEvents=1;shadow=0;dashed=0;html=1;strokeColor=#6C8EBF;fillColor=default;labelPosition=center;verticalLabelPosition=bottom;verticalAlign=top;outlineConnect=0;align=center;shape=mxgraph.office.users.mobile_user;horizontal=1;aspect=fixed;" parent="1" vertex="1">
          <mxGeometry x="280" y="160" width="42.14" height="40" as="geometry" />
        </mxCell>
        <mxCell id="hxrp0AvphLRLxJ5jyJJ6-3" style="rounded=0;orthogonalLoop=1;jettySize=auto;html=1;strokeColor=#6C8EBF;endArrow=none;endFill=0;exitX=1.001;exitY=0.502;exitDx=0;exitDy=0;exitPerimeter=0;entryX=0;entryY=0.5;entryDx=0;entryDy=0;entryPerimeter=0;" parent="1" source="2mW4bDRiq0QGP9x3o7AP-18" target="2mW4bDRiq0QGP9x3o7AP-4" edge="1">
          <mxGeometry relative="1" as="geometry">
            <mxPoint x="400" y="232" as="targetPoint" />
          </mxGeometry>
        </mxCell>
        <mxCell id="2mW4bDRiq0QGP9x3o7AP-18" value="Responder&lt;br&gt;(Police/Security/Hospital)" style="sketch=0;pointerEvents=1;shadow=0;dashed=0;html=1;strokeColor=#6C8EBF;fillColor=default;labelPosition=center;verticalLabelPosition=bottom;verticalAlign=top;outlineConnect=0;align=center;shape=mxgraph.office.users.mobile_user;aspect=fixed;" parent="1" vertex="1">
          <mxGeometry x="280" y="250" width="42.14" height="40" as="geometry" />
        </mxCell>
        <mxCell id="hxrp0AvphLRLxJ5jyJJ6-4" value="" style="endArrow=none;dashed=1;html=1;rounded=0;strokeColor=#6C8EBF;" parent="1" edge="1">
          <mxGeometry width="50" height="50" relative="1" as="geometry">
            <mxPoint x="439.58" y="360" as="sourcePoint" />
            <mxPoint x="439.58" y="120" as="targetPoint" />
          </mxGeometry>
        </mxCell>
        <mxCell id="hxrp0AvphLRLxJ5jyJJ6-11" style="edgeStyle=orthogonalEdgeStyle;rounded=0;orthogonalLoop=1;jettySize=auto;html=1;entryX=0;entryY=0.5;entryDx=0;entryDy=0;startArrow=classic;startFill=1;strokeColor=#6C8EBF;" parent="1" source="2mW4bDRiq0QGP9x3o7AP-4" target="2mW4bDRiq0QGP9x3o7AP-6" edge="1">
          <mxGeometry relative="1" as="geometry" />
        </mxCell>
        <mxCell id="2mW4bDRiq0QGP9x3o7AP-6" value="Web Server" style="image;aspect=fixed;perimeter=ellipsePerimeter;html=1;align=center;shadow=0;dashed=0;spacingTop=3;image=img/lib/active_directory/web_server.svg;imageBackground=default;" parent="1" vertex="1">
          <mxGeometry x="540" y="200" width="48" height="60" as="geometry" />
        </mxCell>
        <mxCell id="hxrp0AvphLRLxJ5jyJJ6-10" style="edgeStyle=orthogonalEdgeStyle;rounded=0;orthogonalLoop=1;jettySize=auto;html=1;startArrow=classic;startFill=1;strokeColor=#6C8EBF;entryX=-0.001;entryY=0.497;entryDx=0;entryDy=0;entryPerimeter=0;" parent="1" source="2mW4bDRiq0QGP9x3o7AP-6" target="2mW4bDRiq0QGP9x3o7AP-10" edge="1">
          <mxGeometry relative="1" as="geometry">
            <mxPoint x="600" y="82" as="targetPoint" />
          </mxGeometry>
        </mxCell>
        <mxCell id="2mW4bDRiq0QGP9x3o7AP-4" value="Internet" style="outlineConnect=0;strokeColor=#6C8EBF;fillColor=default;dashed=0;verticalLabelPosition=bottom;verticalAlign=top;align=center;html=1;fontSize=12;fontStyle=0;aspect=fixed;shape=mxgraph.aws4.resourceIcon;resIcon=mxgraph.aws4.internet;shadow=0;labelPosition=center;horizontal=1;spacingTop=-6;" parent="1" vertex="1">
          <mxGeometry x="410" y="200" width="60" height="60" as="geometry" />
        </mxCell>
        <mxCell id="hxrp0AvphLRLxJ5jyJJ6-21" value="Presentation Layer" style="text;html=1;align=center;verticalAlign=middle;resizable=0;points=[];autosize=1;strokeColor=none;fillColor=default;" parent="1" vertex="1">
          <mxGeometry x="220" y="120" width="120" height="30" as="geometry" />
        </mxCell>
        <mxCell id="hxrp0AvphLRLxJ5jyJJ6-22" value="Application Layer" style="text;html=1;align=center;verticalAlign=middle;resizable=0;points=[];autosize=1;strokeColor=none;fillColor=default;" parent="1" vertex="1">
          <mxGeometry x="440" y="120" width="120" height="30" as="geometry" />
        </mxCell>
        <mxCell id="hxrp0AvphLRLxJ5jyJJ6-23" value="Data Layer" style="text;html=1;align=center;verticalAlign=middle;resizable=0;points=[];autosize=1;strokeColor=none;fillColor=default;" parent="1" vertex="1">
          <mxGeometry x="640" y="120" width="80" height="30" as="geometry" />
        </mxCell>
        <mxCell id="hxrp0AvphLRLxJ5jyJJ6-18" value="Figure: System Overview" style="rounded=0;whiteSpace=wrap;html=1;fillColor=none;strokeColor=#6C8EBF;verticalAlign=bottom;" parent="1" vertex="1">
          <mxGeometry x="220" y="120" width="580" height="240" as="geometry" />
        </mxCell>
      </root>
    </mxGraphModel>
  </diagram>
</mxfile>
